<svg width="24" height="24" viewBox="0 0 24 24" fill="none" xmlns="http://www.w3.org/2000/svg">
  <g id="SVGRepo_bgCarrier" stroke-width="0"></g>
  <g id="SVGRepo_tracerCarrier" stroke-linecap="round" stroke-linejoin="round"></g>
  <g id="SVGRepo_iconCarrier">
    <path fill-rule="evenodd" clip-rule="evenodd" d="M12 0C5.373 0 0 5.372 0 12c0 5.302 3.438 9.8 8.207 11.385.6.11.793-.26.793-.577 0-.284-.012-1.232-.018-2.237-3.338.725-4.042-1.615-4.042-1.615-.545-1.385-1.332-1.748-1.332-1.748-1.088-.744.083-.729.083-.729 1.205.085 1.838 1.238 1.838 1.238 1.07 1.835 2.81 1.305 3.496.996.108-.777.418-1.305.761-1.605-2.665-.3-5.466-1.332-5.466-5.93 0-1.31.465-2.385 1.232-3.225-.123-.303-.535-1.525.117-3.176 0 0 1.01-.322 3.308 1.23a11.576 11.576 0 0 1 3.057-.412c1.04.005 2.088.14 3.108.412 2.297-1.552 3.305-1.23 3.305-1.23.654 1.652.24 2.873.12 3.176.747.84 1.203 1.915 1.203 3.225 0 4.609-2.804 5.625-5.476 5.922.43.372.82 1.102.82 2.217 0 1.6-.015 2.878-.015 3.27 0 .317.19.69.802.574C20.566 21.798 24 17.302 24 12c0-6.628-5.372-12-12-12" fill="white"/>
  </g>
</svg>
